<svg xmlns="http://www.w3.org/2000/svg" viewBox="0 0 1200 800" preserveAspectRatio="xMidYMid slice">
  <rect width="1200" height="800" fill="#141412"/>
  <rect x="140" y="120" width="920" height="560" rx="16" fill="#1c1c19" stroke="#2e2e2a" stroke-width="1.5"/>
  <rect x="180" y="160" width="180" height="12" rx="6" fill="#8f8f88"/>
  <rect x="180" y="200" width="120" height="12" rx="6" fill="#2e2e2a"/>
  <g fill="#ccff00">
    <rect x="180" y="420" width="46" height="180"/>
    <rect x="250" y="360" width="46" height="240"/>
    <rect x="320" y="300" width="46" height="300"/>
  </g>
  <g fill="#2e2e2a">
    <rect x="390" y="380" width="46" height="220"/>
    <rect x="460" y="440" width="46" height="160"/>
  </g>
  <circle cx="840" cy="300" r="110" fill="none" stroke="#ccff00" stroke-width="2.5"/>
  <circle cx="840" cy="300" r="110" fill="none" stroke="#2e2e2a" stroke-width="10" stroke-dasharray="520 691" transform="rotate(-90 840 300)"/>
  <rect x="700" y="470" width="280" height="12" rx="6" fill="#2e2e2a"/>
  <rect x="700" y="500" width="220" height="12" rx="6" fill="#2e2e2a"/>
  <rect x="700" y="530" width="250" height="12" rx="6" fill="#2e2e2a"/>
  <rect x="180" y="260" width="320" height="90" rx="10" fill="#1a1a17" stroke="#ccff00" stroke-width="1.5"/>
  <rect x="200" y="285" width="140" height="10" rx="5" fill="#8f8f88"/>
  <rect x="200" y="310" width="90" height="10" rx="5" fill="#ccff00"/>
  <rect x="60" y="60" width="14" height="14" fill="#ccff00"/>
</svg>
